<svg width="48" height="48" viewBox="0 0 48 48" fill="none" xmlns="http://www.w3.org/2000/svg">
<rect width="48" height="48" rx="8" fill="url(#paint0_linear_450_300)"/>
<path d="M26.7143 43H21.2857V37.5714H26.7143V43Z" fill="#D9D9D9"/>
<path d="M21.2857 37.5714H15.8571V32.1429H21.2857V37.5714Z" fill="#D9D9D9"/>
<path d="M32.1429 37.5714H26.7143V32.1429H32.1429V37.5714Z" fill="#D9D9D9"/>
<path d="M15.8571 32.1429H10.4286V26.7143H15.8571V32.1429Z" fill="#D9D9D9"/>
<path d="M37.5714 32.1429H32.1429V26.7143H37.5714V32.1429Z" fill="#D9D9D9"/>
<path d="M10.4286 26.7143H5V21.2857H10.4286V26.7143Z" fill="#D9D9D9"/>
<path d="M43 26.7143H37.5714V21.2857H43V26.7143Z" fill="#D9D9D9"/>
<path d="M15.8571 21.2857H10.4286V15.8571H15.8571V21.2857Z" fill="#D9D9D9"/>
<path d="M37.5714 21.2857H32.1429V15.8571H37.5714V21.2857Z" fill="#D9D9D9"/>
<path d="M21.2857 15.8571H15.8571V10.4286H21.2857V15.8571Z" fill="#D9D9D9"/>
<path d="M32.1429 15.8571H26.7143V10.4286H32.1429V15.8571Z" fill="#D9D9D9"/>
<path d="M26.7143 10.4286H21.2857V5H26.7143V10.4286Z" fill="#D9D9D9"/>
<defs>
<linearGradient id="paint0_linear_450_300" x1="24" y1="0" x2="24" y2="48" gradientUnits="userSpaceOnUse">
<stop stop-color="#323232"/>
<stop offset="1" stop-color="#111111"/>
</linearGradient>
</defs>
</svg>
